Coordinates
version=1
nRows=13
nColumns=40
inDegrees=yes
endheader
time	pelvis_tilt	pelvis_list	pelvis_rotation	pelvis_tx	pelvis_ty	pelvis_tz	hip_flexion_r	hip_adduction_r	hip_rotation_r	knee_angle_r	knee_angle_r_beta	ankle_angle_r	subtalar_angle_r	mtp_angle_r	hip_flexion_l	hip_adduction_l	hip_rotation_l	knee_angle_l	knee_angle_l_beta	ankle_angle_l	subtalar_angle_l	mtp_angle_l	lumbar_extension	lumbar_bending	lumbar_rotation	arm_flex_r	arm_add_r	arm_rot_r	elbow_flex_r	pro_sup_r	wrist_flex_r	wrist_dev_r	arm_flex_l	arm_add_l	arm_rot_l	elbow_flex_l	pro_sup_l	wrist_flex_l	wrist_dev_l
1760625076.93000007	     -0.04465362	      0.01700255	      0.00846273	      0.00638007	      0.93807693	      0.00048405	     80.00000000	     -7.00000000	      0.00000000	     80.00000000	      1.39626340	      0.00000000	      0.00000000	      0.00000000	     80.00000000	     -7.00000000	      0.00000000	     80.00000000	      1.39626340	      0.00000000	      0.00000000	      0.00000000	     -4.12511138	     -0.28588742	     -2.25168035	      8.41068418	    -11.03130470	      0.91871552	     22.15703583	      0.00000000	    -23.81748685	      5.78153462	      5.58522610	     -1.93851419	     -2.15260100	      0.00000000	      0.02826906	     -1.22013555	      1.30846675
1760625076.96399999	     -0.03391200	      0.01505538	      0.01390329	      0.00442919	      0.93905014	     -0.00029821	     80.00000000	     -7.00000000	      0.00000000	     80.00000000	      1.39626340	      0.00000000	      0.00000000	      0.00000000	     80.00000000	     -7.00000000	      0.00000000	     80.00000000	      1.39626340	      0.00000000	      0.00000000	      0.00000000	     -4.09345943	     -0.28693595	     -2.13516965	      8.46245842	    -11.25356066	      0.83189006	     22.14861588	      0.00139855	    -23.93091979	      5.94436018	      5.52395979	     -1.96485121	     -2.04977466	      0.00000000	      0.01398465	     -1.19448801	      1.33254289
1760625076.99699998	     -0.07031100	      0.00923527	      0.02235020	      0.00470053	      0.94026042	     -0.00086244	     80.00000000	     -7.00000000	      0.00000000	     80.00000000	      1.39626340	      0.00000000	      0.00000000	      0.00000000	     80.00000000	     -7.00000000	      0.00000000	     80.00000000	      1.39626340	      0.00000000	      0.00000000	      0.00000000	     -4.04044555	     -0.29532857	     -2.14793546	      8.24870451	    -11.35231961	      0.66690630	     22.62352785	      0.16570972	    -24.21374844	      5.98128360	      5.51779821	     -2.00598129	     -2.08493023	      0.00000000	      0.04542279	     -1.21451183	      1.30960175
1760625077.02999997	     -0.07141526	      0.00153912	      0.03633546	      0.00518637	      0.94099134	     -0.00050862	     80.00000000	     -7.00000000	      0.00000000	     80.00000000	      1.39626340	      0.00000000	      0.00000000	      0.00000000	     80.00000000	     -7.00000000	      0.00000000	     80.00000000	      1.39626340	      0.00000000	      0.00000000	      0.00000000	     -4.01094303	     -0.25030690	     -2.10901096	      8.18764071	    -11.45008092	      0.54424137	     22.99642660	      0.21044695	    -24.56949953	      5.99482507	      5.46883235	     -1.99381458	     -2.08205435	      0.00000000	      0.15249183	     -1.21136189	      1.31959540
1760625077.06399989	     -0.08453779	     -0.00155759	      0.03365311	      0.00558680	      0.94212333	     -0.00014613	     80.00000000	     -7.00000000	      0.00000000	     80.00000000	      1.39626340	      0.00000000	      0.00000000	      0.00000000	     80.00000000	     -7.00000000	      0.00000000	     80.00000000	      1.39626340	      0.00000000	      0.00000000	      0.00000000	     -4.02190057	     -0.30158029	     -2.12870599	      8.19221860	    -11.48044259	      0.59137588	     23.08593458	      0.24478211	    -24.64598352	      6.09118482	      5.46552564	     -2.06902376	     -2.11159364	      0.00000000	      0.21481328	     -1.25160228	      1.31080157
1760625077.09699988	     -0.11331879	     -0.00336777	      0.03064340	      0.00601603	      0.94224684	     -0.00084895	     80.00000000	     -7.00000000	      0.00000000	     80.00000000	      1.39626340	      0.00000000	      0.00000000	      0.00000000	     80.00000000	     -7.00000000	      0.00000000	     80.00000000	      1.39626340	      0.00000000	      0.00000000	      0.00000000	     -4.00041930	     -0.27096408	     -2.22674390	      7.99630467	    -11.54406226	      0.67612968	     23.13262361	      0.40911707	    -24.58546552	      6.12508719	      5.41110593	     -2.06247531	     -2.19631350	      0.00000000	      0.44948759	     -1.30719008	      1.24526678
1760625077.13100004	     -0.14225685	     -0.00827788	      0.03163843	      0.00693230	      0.94276327	     -0.00128994	     80.00000000	     -7.00000000	      0.00000000	     80.00000000	      1.39626340	      0.00000000	      0.00000000	      0.00000000	     80.00000000	     -7.00000000	      0.00000000	     80.00000000	      1.39626340	      0.00000000	      0.00000000	      0.00000000	     -4.00152942	     -0.27526639	     -2.21755122	      7.98583035	    -11.57264241	      0.67519660	     23.14006536	      0.38045526	    -24.59121897	      6.14748594	      5.39053018	     -2.09399170	     -2.21095354	      0.00000000	      0.72135873	     -1.33093559	      1.20938251
1760625077.16400003	     -0.15515746	     -0.01368002	      0.03356123	      0.00719216	      0.94363112	     -0.00149444	     80.00000000	     -7.00000000	      0.00000000	     80.00000000	      1.39626340	      0.00000000	      0.00000000	      0.00000000	     80.00000000	     -7.00000000	      0.00000000	     80.00000000	      1.39626340	      0.00000000	      0.00000000	      0.00000000	     -3.87841145	     -0.27419272	     -2.21699114	      7.82354260	    -11.65560706	      0.59222598	     23.29508799	      0.44314914	    -24.69703691	      6.34507955	      5.26486414	     -2.08900087	     -2.22158423	      0.00000000	      0.69782192	     -1.34937029	      1.15987333
1760625077.19799995	     -0.15908180	     -0.01527006	      0.02327273	      0.00672417	      0.94416249	     -0.00096491	     80.00000000	     -7.00000000	      0.00000000	     80.00000000	      1.39626340	      0.00000000	      0.00000000	      0.00000000	     80.00000000	     -7.00000000	      0.00000000	     80.00000000	      1.39626340	      0.00000000	      0.00000000	      0.00000000	     -3.89429700	     -0.29159408	     -2.18768053	      7.85184693	    -11.68745792	      0.51592787	     23.35042873	      0.37874222	    -24.80975107	      6.44878396	      5.27444018	     -2.09224818	     -2.21845772	      0.00000000	      0.66273814	     -1.37566430	      1.12611649
1760625077.23099995	     -0.15452254	     -0.02007807	      0.03573275	      0.00626694	      0.94432166	     -0.00082337	     80.00000000	     -7.00000000	      0.00000000	     80.00000000	      1.39626340	      0.00000000	      0.00000000	      0.00000000	     80.00000000	     -7.00000000	      0.00000000	     80.00000000	      1.39626340	      0.00000000	      0.00000000	      0.00000000	     -3.93752327	     -0.27845320	     -2.21572517	      7.86085908	    -11.70517995	      0.45489258	     23.51504739	      0.48659181	    -24.95380855	      6.47296363	      5.30065184	     -2.08218155	     -2.24165492	      0.00000000	      0.62259150	     -1.35974394	      1.12208200
1760625077.26500010	     -0.15472650	     -0.02218108	      0.03391326	      0.00548799	      0.94407616	     -0.00109523	     80.00000000	     -7.00000000	      0.00000000	     80.00000000	      1.39626340	      0.00000000	      0.00000000	      0.00000000	     80.00000000	     -7.00000000	      0.00000000	     80.00000000	      1.39626340	      0.00000000	      0.00000000	      0.00000000	     -3.86586301	     -0.30742890	     -2.17384512	      7.71909845	    -11.70539144	      0.43636500	     23.47532221	      0.52700126	    -24.89648677	      6.53659699	      5.21497876	     -2.12206625	     -2.18774562	      0.00000000	      0.53244779	     -1.32463441	      1.11683901
1760625077.29800010	     -0.14137282	     -0.02000240	      0.04521240	      0.00559818	      0.94390456	     -0.00163530	     80.00000000	     -7.00000000	      0.00000000	     80.00000000	      1.39626340	      0.00000000	      0.00000000	      0.00000000	     80.00000000	     -7.00000000	      0.00000000	     80.00000000	      1.39626340	      0.00000000	      0.00000000	      0.00000000	     -3.87902230	     -0.31548796	     -2.18322287	      7.71736752	    -11.73905205	      0.44479409	     23.47233634	      0.53030328	    -24.88175074	      6.53533947	      5.21014397	     -2.14281846	     -2.16946873	      0.00000000	      0.44908168	     -1.28760203	      1.12552476
1760625077.33200002	     -0.12794748	     -0.02456335	      0.05687844	      0.00622743	      0.94381909	     -0.00210485	     80.00000000	     -7.00000000	      0.00000000	     80.00000000	      1.39626340	      0.00000000	      0.00000000	      0.00000000	     80.00000000	     -7.00000000	      0.00000000	     80.00000000	      1.39626340	      0.00000000	      0.00000000	      0.00000000	     -3.85553039	     -0.29952571	     -2.14171191	      7.66129770	    -11.82107534	      0.48292232	     23.39395257	      0.51539646	    -24.73165764	      6.59532308	      5.18354711	     -2.13498861	     -2.14357898	      0.00000000	      0.41123309	     -1.24393726	      1.13839436
